<?xml version="1.0" encoding="utf-8"?>
<!-- Generator: Adobe Illustrator 22.1.0, SVG Export Plug-In . SVG Version: 6.00 Build 0)  -->
<svg version="1.1" id="icon" xmlns="http://www.w3.org/2000/svg" xmlns:xlink="http://www.w3.org/1999/xlink" x="0px" y="0px"
	 viewBox="0 0 520 520" style="enable-background:new 0 0 520 520;" xml:space="preserve">
<style type="text/css">
	.st0{fill:#FFFFFF;}
</style>
<g id="burger">
	<path class="st0" d="M145,234.7h230c1.1,0,2.2-0.5,3-1.3c0.8-0.8,1.1-1.9,1-3.1c-0.6-6.5-1.7-13-3.5-19.2c-0.6-2.1-2.8-3.4-4.9-2.8
		c-2.1,0.6-3.4,2.8-2.8,4.9c1.2,4.4,2.1,8.9,2.7,13.4H149.4c6.5-49.5,48.2-86.3,98.6-86.3h23.8c35.4,0,68.4,19,86.2,49.7
		c1.1,1.9,3.6,2.6,5.5,1.5c1.9-1.1,2.6-3.6,1.5-5.5c-19.2-33.1-54.9-53.7-93.1-53.7h-23.8c-27,0-52.9,10.1-72.8,28.4
		c-19.8,18.2-31.9,42.9-34.3,69.6c-0.1,1.1,0.3,2.2,1,3.1C142.8,234.3,143.9,234.7,145,234.7z"/>
	<path class="st0" d="M362.9,199.6c0.6,1.3,1.1,2.6,1.7,4c0.6,1.6,2.1,2.5,3.7,2.5c0.5,0,1-0.1,1.5-0.3c2.1-0.8,3.1-3.1,2.3-5.2
		c-0.6-1.4-1.2-2.9-1.8-4.3c-0.9-2-3.3-2.9-5.3-2C362.9,195.2,362,197.6,362.9,199.6z"/>
	<path class="st0" d="M378.1,333.2c-0.8-0.8-1.8-1.3-3-1.3H144.8c-1.1,0-2.2,0.5-3,1.3c-0.8,0.8-1.1,2-1,3.1
		c3,29.2,27.4,51.3,56.8,51.3h8.1c2.2,0,4-1.8,4-4c0-2.2-1.8-4-4-4h-8.1c-23.8,0-43.8-16.8-48.2-39.7h221.1
		c-4.4,22.9-24.4,39.7-48.2,39.7h-94.7c-2.2,0-4,1.8-4,4c0,2.2,1.8,4,4,4h94.7c29.4,0,53.9-22,56.8-51.3
		C379.3,335.1,378.9,334,378.1,333.2z"/>
	<path class="st0" d="M217.8,379.6h-1.6c-2.2,0-4,1.8-4,4c0,2.2,1.8,4,4,4h1.6c2.2,0,4-1.8,4-4C221.8,381.4,220,379.6,217.8,379.6z"
		/>
	<path class="st0" d="M379.1,283.7c0-10.5-8.5-19-19-19h-10.3c-2.2,0-4,1.8-4,4c0,2.2,1.8,4,4,4h10.3c6.1,0,11,4.9,11,11v3.1
		c0,6.1-4.9,11-11,11H176.5c-2.2,0-4,1.8-4,4c0,2.2,1.8,4,4,4h183.6c10.5,0,19-8.5,19-19V283.7z"/>
	<path class="st0" d="M338.8,272.7c2.2,0,4-1.8,4-4c0-2.2-1.8-4-4-4h-0.4c-2.2,0-4,1.8-4,4c0,2.2,1.8,4,4,4H338.8z"/>
	<path class="st0" d="M159.9,305.7h6c2.2,0,4-1.8,4-4c0-2.2-1.8-4-4-4h-6c-6.1,0-11-4.9-11-11v-3.1c0-6.1,4.9-11,11-11h167.7
		c2.2,0,4-1.8,4-4c0-2.2-1.8-4-4-4H159.9c-10.5,0-19,8.5-19,19v3.1C140.9,297.2,149.4,305.7,159.9,305.7z"/>
	<path class="st0" d="M145,248.2c7.1,0,10.5,2,14.3,4.4c4.3,2.6,9.2,5.6,18.5,5.6c9.3,0,14.2-3,18.5-5.6c3.9-2.4,7.3-4.4,14.4-4.4
		c7.1,0,10.5,2,14.4,4.4c4.3,2.6,9.2,5.6,18.5,5.6s14.2-3,18.5-5.6c3.9-2.4,7.3-4.4,14.4-4.4c7.1,0,10.5,2,14.4,4.4
		c4.3,2.6,9.2,5.6,18.5,5.6c9.3,0,14.2-3,18.5-5.6c3.9-2.4,7.3-4.4,14.4-4.4s10.5,2,14.4,4.4c4.3,2.6,9.2,5.6,18.5,5.6
		c2.2,0,4-1.8,4-4s-1.8-4-4-4c-7.1,0-10.5-2-14.4-4.4c-4.3-2.6-9.2-5.6-18.5-5.6c-9.3,0-14.2,3-18.5,5.6c-3.9,2.4-7.3,4.4-14.4,4.4
		c-7.1,0-10.5-2-14.4-4.4c-4.3-2.6-9.2-5.6-18.5-5.6c-9.3,0-14.2,3-18.5,5.6c-3.9,2.4-7.3,4.4-14.4,4.4c-7.1,0-10.5-2-14.4-4.4
		c-4.3-2.6-9.2-5.6-18.5-5.6s-14.2,3-18.5,5.6c-3.9,2.4-7.3,4.4-14.4,4.4c-7.1,0-10.5-2-14.3-4.4c-4.3-2.6-9.2-5.6-18.5-5.6
		c-2.2,0-4,1.8-4,4S142.8,248.2,145,248.2z"/>
	<path class="st0" d="M360.7,315.7c-4.3-2.6-9.2-5.6-18.5-5.6c-9.3,0-14.2,3-18.5,5.6c-3.9,2.4-7.3,4.4-14.4,4.4
		c-7.1,0-10.5-2-14.4-4.4c-4.3-2.6-9.2-5.6-18.5-5.6c-9.3,0-14.2,3-18.5,5.6c-3.9,2.4-7.3,4.4-14.4,4.4c-7.1,0-10.5-2-14.4-4.4
		c-4.3-2.6-9.2-5.6-18.5-5.6s-14.2,3-18.5,5.6c-3.9,2.4-7.3,4.4-14.4,4.4c-7.1,0-10.5-2-14.3-4.4c-4.3-2.6-9.2-5.6-18.5-5.6
		c-2.2,0-4,1.8-4,4c0,2.2,1.8,4,4,4c7.1,0,10.5,2,14.3,4.4c4.3,2.6,9.2,5.6,18.5,5.6c9.3,0,14.2-3,18.5-5.6
		c3.9-2.4,7.3-4.4,14.4-4.4c7.1,0,10.5,2,14.4,4.4c4.3,2.6,9.2,5.6,18.5,5.6s14.2-3,18.5-5.6c3.9-2.4,7.3-4.4,14.4-4.4
		c7.1,0,10.5,2,14.4,4.4c4.3,2.6,9.2,5.6,18.5,5.6c9.3,0,14.2-3,18.5-5.6c3.9-2.4,7.3-4.4,14.4-4.4s10.5,2,14.4,4.4
		c4.3,2.6,9.2,5.6,18.5,5.6c2.2,0,4-1.8,4-4c0-2.2-1.8-4-4-4C367.9,320.1,364.6,318,360.7,315.7z"/>
	<circle class="st0" cx="223.6" cy="162.6" r="4"/>
	<circle class="st0" cx="201.1" cy="187.6" r="4"/>
	<circle class="st0" cx="240.4" cy="187.6" r="4"/>
	<circle class="st0" cx="279.6" cy="187.6" r="4"/>
	<circle class="st0" cx="318.9" cy="187.6" r="4"/>
	<circle class="st0" cx="261.1" cy="162.6" r="4"/>
	<circle class="st0" cx="298.6" cy="162.6" r="4"/>
</g>
</svg>
